<svg width="93" height="43" viewBox="0 0 93 43" fill="none" xmlns="http://www.w3.org/2000/svg">
<g clip-path="url(#clip0_2701_188)">
<path d="M15.087 38.9885L13.7434 33.9554L26.7289 34.9262L26.1458 42.9815L15.087 38.9885ZM18.1984 0L0.0268555 12.481L2.83721 31.2885H6.54382L5.90366 17.8348L6.47235 17.5786L8.70107 31.2885H12.5519L12.4093 14.9007L12.9782 14.6442L14.926 31.2885H19.0031L19.9649 11.4935L20.5333 11.2367L21.5424 31.2885H26.9337L28.8313 3.7616L18.1984 0ZM74.3176 40.9435L74.28 39.3743L78.0106 39.3104L78.0449 37.6002L74.2358 37.5315L74.1978 35.9429L79.2162 35.7718L79.2572 33.8959H72.4873L72.2854 43H79.3823L79.3324 41.1202L74.3176 40.9435ZM40.5607 37.596L40.481 39.2996L42.3639 39.391L42.3401 41.1202L38.3991 40.9521L38.5708 35.9579L43.9894 35.7757L43.9112 33.8959H36.912L36.2844 43H44.2591L44.0525 37.5079L40.5607 37.596ZM89.9575 38.3008L84.7851 37.0293L84.8075 36.0439L89.7556 35.7754L89.6307 33.8959H83.2703L82.945 38.6146L88.2032 39.944L88.227 40.8112L82.7558 41.1202L82.6217 43H90.2791L89.9575 38.3008ZM68.8513 43L68.2237 33.8959H66.4217L63.8332 38.2357L61.2444 33.8959H59.4427L58.815 43H60.9318L61.1343 37.0938L63.8332 41.1202L66.5318 37.0938L66.7347 43H68.8513ZM59.9553 0.556312H55.7188L55.3331 28.7109H60.4517L59.9553 0.556312ZM73.0822 22.5869L68.4077 22.8061L68.2526 6.24814L73.1418 6.46314L73.0822 22.5869ZM77.1791 0.568854H63.971L63.4567 28.7109H78.117L77.1791 0.568854ZM92.9736 6.71785L92.5019 0.556312H79.4883L79.5984 6.04478L83.7605 6.25441L84.1873 28.7112H89.3161L87.782 6.45657L92.9736 6.71785ZM42.6631 6.31592L46.7456 6.11735L47.2107 11.7268L42.4988 14.9628L42.6631 6.31592ZM47.4325 28.7109H52.992L49.3688 16.0748L52.2603 13.7779L50.2848 0.556312H36.0926L35.6255 6.65783L38.8002 6.50375L37.2694 28.7109H42.238L42.3723 21.632L45.9524 18.7883L47.4325 28.7109ZM50.1365 38.8968L50.567 35.9181L52.6339 35.7823L53.0658 38.7714L50.1365 38.8968ZM53.6772 43H55.8205L54.1247 33.8953H49.0957L47.4001 43H49.5434L49.8753 40.7031L53.3545 40.7685L53.6772 43Z" fill="#D22A36"/>
</g>
<defs>
<clipPath id="clip0_2701_188">
<rect width="93" height="43" fill="white"/>
</clipPath>
</defs>
</svg>
